<?xml version="1.0" encoding="UTF-8"?>
<svg xmlns="http://www.w3.org/2000/svg" xmlns:xlink="http://www.w3.org/1999/xlink" width="2835" height="2835" viewBox="0 0 2835 2835">
<path fill-rule="evenodd" fill="rgb(97.65625%, 98.4375%, 100%)" fill-opacity="1" d="M 0 0.351562 L 2834.648438 0.351562 L 2834.648438 2835 L 0 2835 L 0 0.351562 "/>
<path fill-rule="evenodd" fill="rgb(0%, 0%, 0%)" fill-opacity="1" d="M 1199.238281 556.128906 C 1154.859375 556.128906 1085.058594 556.128906 1020.449219 590.578125 C 955.210938 625.648438 895.84375 695.171875 856.007812 759.441406 C 816.175781 823.78125 796.015625 883.5 786.214844 953.011719 C 776.410156 1022.53125 776.410156 1101.78125 771.234375 1151.210938 C 765.988281 1200.570312 756.1875 1220.660156 736.578125 1245.371094 C 716.417969 1270.078125 686.390625 1299.910156 671.414062 1319.441406 C 656.429688 1339.601562 656.429688 1349.339844 672.585938 1367.699219 C 688.734375 1385.511719 720.425781 1412.5 770.0625 1432.039062 C 819.695312 1452.128906 887.761719 1465.378906 956.382812 1461.929688 C 1025.070312 1458.480469 1094.859375 1438.941406 1174.460938 1433.761719 C 1254.058594 1428.578125 1344.078125 1438.941406 1408.691406 1443.5 C 1473.308594 1448.679688 1513.140625 1448.679688 1563.328125 1443.5 C 1612.890625 1438.941406 1672.328125 1428.578125 1713.890625 1407.320312 C 1754.828125 1385.511719 1776.78125 1352.789062 1777.890625 1334.421875 C 1779.609375 1316.609375 1760.011719 1313.710938 1728.871094 1285.550781 C 1697.738281 1257.449219 1655.011719 1204.570312 1638.851562 1123.039062 C 1622.699219 1042.058594 1632.5 932.921875 1607.71875 843.871094 C 1582.941406 754.261719 1523.5 685.371094 1463.511719 640.558594 C 1403.511719 595.761719 1344.078125 576.21875 1304.238281 565.941406 C 1264.480469 556.128906 1244.25 556.128906 1199.238281 556.128906 "/>
<path fill-rule="evenodd" fill="rgb(90.234375%, 90.234375%, 90.234375%)" fill-opacity="1" d="M 1142.148438 1484.289062 C 1091.410156 1493.480469 1047.578125 1522.820312 1001.390625 1549.808594 C 954.65625 1577.351562 905.019531 1602.621094 849.101562 1623.878906 C 793.117188 1645.148438 730.226562 1662.339844 690.464844 1687.050781 C 650.632812 1712.320312 632.753906 1744.488281 624.121094 1809.378906 C 615.425781 1873.714844 615.425781 1970.78125 615.425781 2020.761719 C 615.425781 2070.121094 615.425781 2073.015625 716.976562 2113.199219 C 818.523438 2153.445312 1021.550781 2230.96875 1225.199219 2230.96875 C 1428.851562 2230.96875 1633.121094 2153.445312 1735.21875 2114.371094 C 1837.878906 2075.296875 1837.878906 2075.296875 1837.878906 2049.476562 C 1837.878906 2023.035156 1837.878906 1970.78125 1832.699219 1911.066406 C 1827.53125 1851.351562 1817.71875 1784.109375 1791.210938 1739.308594 C 1765.191406 1694.511719 1722.519531 1672.140625 1674.058594 1652.050781 C 1626.148438 1631.339844 1571.960938 1612.980469 1513.140625 1581.359375 C 1454.808594 1549.808594 1391.988281 1505 1357.328125 1489.46875 C 1323.300781 1473.390625 1316.949219 1486.570312 1284.640625 1486.570312 C 1252.328125 1487.199219 1193.519531 1475.671875 1142.148438 1484.289062 "/>
<path fill-rule="evenodd" fill="rgb(98.826599%, 72.068787%, 53.709412%)" fill-opacity="1" d="M 1090.789062 1479.121094 C 1090.789062 1499.210938 1090.789062 1525.648438 1097.761719 1550.359375 C 1105.21875 1575.070312 1120.269531 1598 1149.679688 1615.808594 C 1179.078125 1633.621094 1222.921875 1647.421875 1252.328125 1646.25 C 1281.738281 1645.699219 1296.789062 1630.160156 1309.488281 1616.980469 C 1322.738281 1603.789062 1333.71875 1591.71875 1341.179688 1576.179688 C 1348.699219 1560.089844 1352.710938 1540.011719 1356.160156 1520.46875 C 1359.058594 1501.550781 1361.398438 1483.738281 1359.058594 1467.660156 C 1356.78125 1451.570312 1349.878906 1437.769531 1329.101562 1431.480469 C 1308.320312 1424.578125 1273.109375 1425.128906 1237.351562 1425.761719 C 1201.589844 1425.761719 1165.210938 1425.761719 1140.429688 1426.859375 C 1115.019531 1428.03125 1101.769531 1430.308594 1095.421875 1438.390625 C 1089.691406 1445.851562 1090.238281 1459.03125 1090.789062 1479.121094 "/>
<path fill-rule="evenodd" fill="rgb(98.826599%, 72.068787%, 53.709412%)" fill-opacity="1" d="M 871.609375 1070.160156 C 881.410156 1068.5 890.59375 1068.5 900.464844 1070.78125 C 918.347656 874.929688 1055.648438 722.160156 1222.921875 722.160156 C 1390.261719 722.160156 1527.5 874.929688 1545.449219 1070.78125 C 1554.628906 1068.5 1564.441406 1068.5 1573.679688 1070.160156 C 1616.96875 1079.96875 1641.199219 1135.121094 1628.5 1193.109375 C 1615.238281 1251.101562 1569.609375 1290.171875 1526.398438 1280.441406 C 1523.5 1279.820312 1520.601562 1279.269531 1517.699219 1278.089844 C 1466.398438 1412.5 1353.878906 1506.109375 1222.921875 1506.109375 C 1091.96875 1506.109375 979.441406 1412.5 928.148438 1278.089844 C 925.25 1279.269531 922.347656 1279.820312 919.449219 1280.441406 C 876.234375 1290.171875 830.601562 1251.101562 817.347656 1193.109375 C 804.09375 1135.121094 828.878906 1079.96875 871.609375 1070.160156 "/>
<path fill-rule="evenodd" fill="rgb(0%, 0%, 0%)" fill-opacity="1" d="M 1084.441406 1132.78125 C 1103.488281 1132.78125 1119.089844 1148.308594 1119.089844 1167.289062 C 1119.089844 1186.210938 1103.488281 1201.738281 1084.441406 1201.738281 C 1064.839844 1201.738281 1049.300781 1186.210938 1049.300781 1167.289062 C 1049.300781 1148.308594 1064.839844 1132.78125 1084.441406 1132.78125 "/>
<path fill-rule="evenodd" fill="rgb(0%, 0%, 0%)" fill-opacity="1" d="M 1361.398438 1132.78125 C 1381.011719 1132.78125 1396.550781 1148.308594 1396.550781 1167.289062 C 1396.550781 1186.210938 1381.011719 1201.738281 1361.398438 1201.738281 C 1342.351562 1201.738281 1326.75 1186.210938 1326.75 1167.289062 C 1326.75 1148.308594 1342.351562 1132.78125 1361.398438 1132.78125 "/>
<path fill-rule="evenodd" fill="rgb(0%, 0%, 0%)" fill-opacity="1" d="M 1305.96875 1351.609375 C 1297.339844 1365.96875 1285.808594 1378.050781 1271.390625 1386.679688 C 1257.511719 1394.691406 1240.800781 1398.699219 1222.921875 1398.699219 C 1205.039062 1398.699219 1188.339844 1394.691406 1174.460938 1386.058594 C 1160.03125 1378.050781 1147.949219 1365.96875 1139.871094 1351.609375 C 1137.53125 1347.058594 1137.53125 1342.429688 1139.871094 1337.871094 C 1142.710938 1333.800781 1147.328125 1329.800781 1151.960938 1331.519531 C 1175.628906 1334.421875 1199.238281 1338.980469 1222.921875 1338.980469 C 1246.601562 1338.980469 1270.210938 1334.421875 1293.890625 1331.519531 C 1298.519531 1329.800781 1303.140625 1333.800781 1305.96875 1337.871094 C 1308.320312 1342.429688 1308.320312 1347.058594 1305.96875 1351.609375 "/>
<path fill-rule="nonzero" fill="rgb(0%, 0%, 0%)" fill-opacity="1" d="M 1015.269531 1117.859375 C 1007.75 1117.859375 1001.949219 1112.128906 1001.949219 1104.679688 C 1001.949219 1097.769531 1007.75 1091.421875 1015.269531 1091.421875 L 1126.550781 1091.421875 C 1134.078125 1091.421875 1139.871094 1097.769531 1139.871094 1104.679688 C 1139.871094 1112.128906 1134.078125 1117.859375 1126.550781 1117.859375 L 1015.269531 1117.859375 "/>
<path fill-rule="nonzero" fill="rgb(0%, 0%, 0%)" fill-opacity="1" d="M 1322.121094 1117.859375 C 1314.671875 1117.859375 1308.871094 1112.128906 1308.871094 1104.679688 C 1308.871094 1097.769531 1314.671875 1091.421875 1322.121094 1091.421875 L 1433.480469 1091.421875 C 1441 1091.421875 1446.730469 1097.769531 1446.730469 1104.679688 C 1446.730469 1112.128906 1441 1117.859375 1433.480469 1117.859375 L 1322.121094 1117.859375 "/>
<path fill-rule="evenodd" fill="rgb(0%, 0%, 0%)" fill-opacity="1" d="M 1536.199219 1115.578125 C 1538.480469 1110.410156 1541.929688 1090.320312 1547.179688 1075.960938 C 1552.898438 1061.601562 1559.808594 1051.800781 1563.878906 1031.160156 C 1567.890625 1011.070312 1569.058594 979.449219 1563.328125 936.371094 C 1557.53125 893.289062 1544.828125 838.761719 1521.769531 800.789062 C 1499.269531 763.511719 1465.78125 742.800781 1424.851562 726.160156 C 1383.289062 709.53125 1333.730469 697.441406 1271.390625 696.269531 C 1209.050781 695.71875 1134.078125 706.628906 1070.640625 733.621094 C 1007.191406 761.171875 955.210938 804.238281 920.625 843.308594 C 886.039062 882.941406 868.710938 919.109375 862.359375 947.28125 C 855.453125 976 859.457031 996.710938 867.539062 1016.171875 C 875.613281 1035.710938 887.761719 1052.96875 895.222656 1065.601562 C 902.746094 1078.238281 905.019531 1085.140625 907.921875 1096.601562 C 910.269531 1107.511719 912.546875 1122.488281 913.722656 1120.140625 C 914.273438 1118.410156 914.273438 1100.050781 914.273438 1081.691406 C 914.273438 1063.320312 914.273438 1045.519531 921.796875 1036.878906 C 929.253906 1028.261719 943.679688 1028.261719 987.519531 1027.089844 C 1030.800781 1025.980469 1103.488281 1024.25 1161.761719 1018.519531 C 1220.019531 1013.339844 1264.480469 1004.171875 1306.589844 996.089844 C 1349.261719 988.078125 1389.640625 981.730469 1419.050781 969.640625 C 1448.53125 957.640625 1467.511719 940.378906 1478.488281 927.738281 C 1488.910156 915.660156 1491.738281 907.660156 1492.910156 913.941406 C 1494.089844 920.289062 1492.910156 940.378906 1495.191406 957.640625 C 1497.539062 974.269531 1502.71875 988.078125 1508.519531 1004.71875 C 1514.871094 1020.800781 1521.21875 1039.78125 1525.21875 1056.421875 C 1529.289062 1073.058594 1529.851562 1087.96875 1531.019531 1100.050781 C 1532.128906 1111.511719 1533.851562 1120.761719 1536.199219 1115.578125 "/>
<path fill="none" stroke-width="20.829" stroke-linecap="butt" stroke-linejoin="miter" stroke="rgb(0%, 0%, 0%)" stroke-opacity="1" stroke-miterlimit="2.61313" d="M 15361.992188 17194.21875 C 15384.804688 17245.898438 15419.296875 17446.796875 15471.796875 17590.390625 C 15528.984375 17733.984375 15598.085938 17831.992188 15638.789062 18038.398438 C 15678.90625 18239.296875 15690.585938 18555.507812 15633.28125 18986.289062 C 15575.3125 19417.109375 15448.28125 19962.382812 15217.695312 20342.109375 C 14992.695312 20714.882812 14657.8125 20921.992188 14248.515625 21088.398438 C 13832.890625 21254.6875 13337.304688 21375.585938 12713.90625 21387.304688 C 12090.507812 21392.8125 11340.78125 21283.710938 10706.40625 21013.789062 C 10071.914062 20738.28125 9552.109375 20307.617188 9206.25 19916.914062 C 8860.390625 19520.585938 8687.109375 19158.90625 8623.59375 18877.1875 C 8554.53125 18590 8594.570312 18382.890625 8675.390625 18188.28125 C 8756.132812 17992.890625 8877.617188 17820.3125 8952.226562 17693.984375 C 9027.460938 17567.617188 9050.195312 17498.59375 9079.21875 17383.984375 C 9102.695312 17274.882812 9125.46875 17125.117188 9137.226562 17148.59375 C 9142.734375 17165.898438 9142.734375 17349.492188 9142.734375 17533.085938 C 9142.734375 17716.796875 9142.734375 17894.804688 9217.96875 17981.210938 C 9292.539062 18067.382812 9436.796875 18067.382812 9875.195312 18079.101562 C 10308.007812 18090.195312 11034.882812 18107.5 11617.617188 18164.804688 C 12200.195312 18216.601562 12644.804688 18308.28125 13065.898438 18389.101562 C 13492.617188 18469.21875 13896.40625 18532.695312 14190.507812 18653.59375 C 14485.3125 18773.59375 14675.117188 18946.210938 14784.882812 19072.617188 C 14889.101562 19193.398438 14917.382812 19273.398438 14929.101562 19210.585938 C 14940.898438 19147.109375 14929.101562 18946.210938 14951.914062 18773.59375 C 14975.390625 18607.304688 15027.1875 18469.21875 15085.195312 18302.8125 C 15148.710938 18141.992188 15212.1875 17952.1875 15252.1875 17785.78125 C 15292.890625 17619.414062 15298.515625 17470.3125 15310.195312 17349.492188 C 15321.289062 17234.882812 15338.515625 17142.382812 15361.992188 17194.21875 Z M 15361.992188 17194.21875 " transform="matrix(0.1, 0, 0, -0.1, 0, 2835)"/>
<path fill-rule="evenodd" fill="rgb(80.076599%, 80.076599%, 80.076599%)" fill-opacity="1" d="M 1095.421875 1514.738281 C 1100.039062 1529.648438 1108.671875 1558.988281 1128.898438 1579.628906 C 1148.511719 1600.890625 1179.640625 1614.078125 1200.421875 1620.980469 C 1221.75 1627.878906 1232.730469 1628.441406 1249.429688 1627.328125 C 1265.589844 1625.609375 1287.539062 1620.980469 1305.421875 1607.800781 C 1323.300781 1593.988281 1337.179688 1571.621094 1345.25 1550.910156 C 1353.328125 1530.820312 1356.78125 1512.460938 1357.949219 1502.660156 C 1359.058594 1492.929688 1357.949219 1491.199219 1363.679688 1493.480469 C 1369.480469 1495.828125 1381.558594 1502.660156 1394.820312 1510.179688 C 1407.519531 1518.191406 1421.398438 1526.820312 1430.578125 1532 C 1439.28125 1537.730469 1443.28125 1540.011719 1448.53125 1548.640625 C 1453.710938 1557.261719 1460.058594 1572.179688 1458.328125 1601.449219 C 1457.160156 1630.789062 1448.53125 1674.410156 1437.550781 1702.578125 C 1426.019531 1730.679688 1412.699219 1743.308594 1389.640625 1749.109375 C 1366.578125 1754.839844 1333.101562 1753.109375 1308.871094 1740.480469 C 1284.089844 1727.21875 1268.488281 1703.128906 1258.128906 1684.148438 C 1248.328125 1665.238281 1243.699219 1651.429688 1236.800781 1649.699219 C 1229.28125 1647.980469 1219.46875 1657.160156 1202.761719 1685.878906 C 1185.988281 1714.039062 1162.929688 1760.570312 1135.25 1774.929688 C 1106.949219 1788.738281 1073.53125 1769.199219 1050.410156 1747.941406 C 1026.800781 1726.121094 1013.539062 1702.578125 1005.46875 1677.859375 C 996.765625 1653.148438 993.3125 1627.878906 993.3125 1605.519531 C 992.761719 1583.628906 995.59375 1565.269531 1003.671875 1552.640625 C 1011.75 1540.011719 1025.628906 1533.71875 1037.148438 1527.921875 C 1049.300781 1522.199219 1059.109375 1516.46875 1067.179688 1511.839844 C 1075.808594 1506.730469 1082.710938 1503.28125 1086.171875 1501.550781 C 1090.238281 1499.828125 1090.238281 1499.828125 1095.421875 1514.738281 "/>
<path fill-rule="nonzero" fill="rgb(80.076599%, 80.076599%, 80.076599%)" fill-opacity="1" d="M 2219.21875 1942.609375 C 2219.21875 1953.65625 2218.671875 1964.632812 2217.640625 1975.609375 C 2216.53125 1986.585938 2214.871094 1997.496094 2212.730469 2008.332031 C 2210.589844 2019.101562 2207.898438 2029.804688 2204.660156 2040.363281 C 2201.480469 2050.929688 2197.75 2061.285156 2193.539062 2071.429688 C 2189.261719 2081.648438 2184.570312 2091.585938 2179.320312 2101.320312 C 2174.070312 2111.054688 2168.410156 2120.441406 2162.269531 2129.625 C 2156.121094 2138.808594 2149.5 2147.644531 2142.519531 2156.136719 C 2135.480469 2164.695312 2128.03125 2172.84375 2120.230469 2180.640625 C 2112.429688 2188.441406 2104.210938 2195.832031 2095.648438 2202.800781 C 2087.089844 2209.84375 2078.179688 2216.402344 2069 2222.476562 C 2059.820312 2228.617188 2050.300781 2234.28125 2040.558594 2239.460938 C 2030.761719 2244.703125 2020.75 2249.398438 2010.53125 2253.613281 C 2000.320312 2257.820312 1989.890625 2261.550781 1979.328125 2264.722656 C 1968.699219 2267.898438 1957.988281 2270.59375 1947.160156 2272.734375 C 1936.25 2274.871094 1925.339844 2276.53125 1914.300781 2277.566406 C 1903.320312 2278.671875 1892.28125 2279.222656 1881.160156 2279.222656 C 1870.121094 2279.222656 1859.070312 2278.671875 1848.019531 2277.566406 C 1837.050781 2276.53125 1826.070312 2274.871094 1815.238281 2272.734375 C 1804.328125 2270.59375 1793.628906 2267.898438 1783.058594 2264.722656 C 1772.429688 2261.550781 1762.011719 2257.820312 1751.789062 2253.613281 C 1741.578125 2249.398438 1731.570312 2244.703125 1721.828125 2239.460938 C 1712.03125 2234.28125 1702.570312 2228.617188 1693.320312 2222.476562 C 1684.140625 2216.402344 1675.230469 2209.84375 1666.671875 2202.800781 C 1658.179688 2195.832031 1649.96875 2188.441406 1642.101562 2180.640625 C 1634.300781 2172.84375 1626.839844 2164.695312 1619.871094 2156.136719 C 1612.828125 2147.644531 1606.199219 2138.808594 1600.050781 2129.625 C 1593.910156 2120.441406 1588.25 2111.054688 1583 2101.320312 C 1577.828125 2091.585938 1573.058594 2081.648438 1568.851562 2071.429688 C 1564.570312 2061.285156 1560.839844 2050.929688 1557.671875 2040.363281 C 1554.421875 2029.804688 1551.730469 2019.101562 1549.589844 2008.332031 C 1547.449219 1997.496094 1545.800781 1986.585938 1544.761719 1975.609375 C 1543.660156 1964.632812 1543.101562 1953.65625 1543.101562 1942.609375 C 1543.101562 1931.636719 1543.660156 1920.589844 1544.761719 1909.683594 C 1545.800781 1898.707031 1547.449219 1887.800781 1549.589844 1876.960938 C 1551.730469 1866.191406 1554.421875 1855.488281 1557.671875 1844.929688 C 1560.839844 1834.371094 1564.570312 1824.011719 1568.851562 1813.871094 C 1573.058594 1803.648438 1577.828125 1793.710938 1583 1783.96875 C 1588.25 1774.238281 1593.910156 1764.851562 1600.050781 1755.671875 C 1606.199219 1746.488281 1612.828125 1737.648438 1619.871094 1729.089844 C 1626.839844 1720.601562 1634.300781 1712.449219 1642.101562 1704.648438 C 1649.96875 1696.851562 1658.179688 1689.46875 1666.671875 1682.488281 C 1675.230469 1675.449219 1684.140625 1668.890625 1693.320312 1662.820312 C 1702.570312 1656.671875 1712.03125 1651.011719 1721.828125 1645.828125 C 1731.570312 1640.589844 1741.578125 1635.890625 1751.789062 1631.679688 C 1762.011719 1627.46875 1772.429688 1623.75 1783.058594 1620.570312 C 1793.628906 1617.390625 1804.328125 1614.699219 1815.238281 1612.558594 C 1826.070312 1610.351562 1837.050781 1608.761719 1848.019531 1607.660156 C 1859.070312 1606.621094 1870.121094 1606.070312 1881.160156 1606.070312 C 1892.28125 1606.070312 1903.320312 1606.621094 1914.300781 1607.660156 C 1925.339844 1608.761719 1936.25 1610.351562 1947.160156 1612.558594 C 1957.988281 1614.699219 1968.699219 1617.390625 1979.328125 1620.570312 C 1989.890625 1623.75 2000.320312 1627.46875 2010.53125 1631.679688 C 2020.75 1635.890625 2030.761719 1640.589844 2040.558594 1645.828125 C 2050.300781 1651.011719 2059.820312 1656.671875 2069 1662.820312 C 2078.179688 1668.890625 2087.089844 1675.449219 2095.648438 1682.488281 C 2104.210938 1689.46875 2112.429688 1696.851562 2120.230469 1704.648438 C 2128.03125 1712.449219 2135.480469 1720.601562 2142.519531 1729.089844 C 2149.5 1737.648438 2156.121094 1746.488281 2162.269531 1755.671875 C 2168.410156 1764.851562 2174.070312 1774.238281 2179.320312 1783.96875 C 2184.570312 1793.710938 2189.261719 1803.648438 2193.539062 1813.871094 C 2197.75 1824.011719 2201.480469 1834.371094 2204.660156 1844.929688 C 2207.898438 1855.488281 2210.589844 1866.191406 2212.730469 1876.960938 C 2214.871094 1887.800781 2216.53125 1898.707031 2217.640625 1909.683594 C 2218.671875 1920.589844 2219.21875 1931.636719 2219.21875 1942.609375 "/>
<path fill-rule="nonzero" fill="rgb(19.993591%, 80.076599%, 19.993591%)" fill-opacity="1" d="M 1691.390625 1895.53125 L 1803.289062 2017.308594 L 2075.558594 1780.660156 L 2116.570312 1827.738281 L 1821.71875 2083.925781 L 1798.660156 2104.015625 L 1777.890625 2081.648438 L 1645.210938 1937.503906 L 1691.390625 1895.53125 "/>
</svg>
